<?xml version="1.0" encoding="UTF-8" standalone="no"?>
<!-- Created with Inkscape (http://www.inkscape.org/) -->

<svg
   xmlns:dc="http://purl.org/dc/elements/1.1/"
   xmlns:cc="http://creativecommons.org/ns#"
   xmlns:rdf="http://www.w3.org/1999/02/22-rdf-syntax-ns#"
   xmlns:svg="http://www.w3.org/2000/svg"
   xmlns="http://www.w3.org/2000/svg"
   xmlns:sodipodi="http://sodipodi.sourceforge.net/DTD/sodipodi-0.dtd"
   xmlns:inkscape="http://www.inkscape.org/namespaces/inkscape"
   width="210mm"
   height="297mm"
   viewBox="0 0 210 297"
   version="1.1"
   id="svg4760"
   inkscape:version="0.92.2 (30a58d1, 2017-08-07)"
   sodipodi:docname="time-money.svg">
  <defs
     id="defs4754" />
  <sodipodi:namedview
     id="base"
     pagecolor="#ffffff"
     bordercolor="#666666"
     borderopacity="1.0"
     inkscape:pageopacity="0.0"
     inkscape:pageshadow="2"
     inkscape:zoom="0.98994949"
     inkscape:cx="289.66948"
     inkscape:cy="520.17244"
     inkscape:document-units="mm"
     inkscape:current-layer="layer1"
     showgrid="false"
     inkscape:window-width="1920"
     inkscape:window-height="1015"
     inkscape:window-x="0"
     inkscape:window-y="0"
     inkscape:window-maximized="1" />
  <metadata
     id="metadata4757">
    <rdf:RDF>
      <cc:Work
         rdf:about="">
        <dc:format>image/svg+xml</dc:format>
        <dc:type
           rdf:resource="http://purl.org/dc/dcmitype/StillImage" />
        <dc:title></dc:title>
      </cc:Work>
    </rdf:RDF>
  </metadata>
  <g
     inkscape:label="Layer 1"
     inkscape:groupmode="layer"
     id="layer1">
    <path
       style="fill:#000000;stroke-width:0.26458332"
       d="m 102.32537,176.12095 c -3.496392,-0.62315 -7.216582,-2.88962 -9.334552,-5.68694 l -1.20822,-1.59575 -2.33393,0.10766 c -10.73712,0.4953 -20.62342,-6.76974 -23.8871,-17.55366 -0.64042,-2.11608 -0.72118,-2.80846 -0.72523,-6.2177 -0.004,-3.14612 0.10026,-4.21734 0.57795,-5.95313 2.42959,-8.8284 9.89791,-15.75281 18.81449,-17.44426 7.32218,-1.38899 14.77699,0.8473 20.370882,6.11085 5.19072,4.8842 7.90475,11.26804 7.63043,17.948 l -0.10866,2.64583 1.57317,1.17098 c 3.88462,2.89148 6.30171,8.18868 5.87238,12.86966 -0.20598,2.24576 -1.10864,4.94723 -2.24449,6.7173 -1.05534,1.64462 -3.31003,3.84285 -5.10188,4.97414 -2.61315,1.64982 -6.80531,2.45774 -9.89524,1.90702 z m 5.74723,-2.79745 c 5.45753,-1.61803 8.98382,-6.26973 8.97457,-11.83879 -0.0118,-7.07274 -5.23867,-12.3414 -12.24362,-12.3414 -3.60978,0 -6.275672,1.03953 -8.736612,3.40675 -2.42983,2.33728 -3.62288,5.27501 -3.62288,8.92082 0,5.81944 3.60555,10.52093 9.128122,11.90268 1.8805,0.4705 4.82096,0.44786 6.50042,-0.0501 z m -4.19854,-2.27269 c -0.17463,-0.17463 -0.3175,-0.71041 -0.3175,-1.19063 0,-0.87287 -2.7e-4,-0.87312 -1.34031,-0.87312 -1.72579,0 -2.363862,-0.34533 -2.363862,-1.27931 0,-1.21058 0.392792,-1.36653 3.441932,-1.36653 3.28561,0 3.80765,-0.2313 3.80765,-1.68707 0,-1.23609 -0.65469,-1.73317 -2.29714,-1.74409 -1.62274,-0.0108 -2.81167,-0.51499 -3.69785,-1.56816 -1.852622,-2.2017 -1.222662,-5.04425 1.41625,-6.39052 0.95829,-0.48888 1.03333,-0.60938 1.03333,-1.65949 0,-1.25001 0.34851,-1.76733 1.19062,-1.76733 0.84298,0 1.19063,0.5176 1.19063,1.77271 v 1.1377 h 1.4726 c 1.76835,0 2.49615,0.33791 2.49615,1.15893 0,1.20426 -0.71707,1.48691 -3.77225,1.48691 -3.0906,0 -3.63951,0.23278 -3.63204,1.54025 0.007,1.21216 0.87012,1.9086 2.18387,1.76199 2.4455,-0.2729 4.95583,1.87401 4.95583,4.23838 0,1.61208 -1.35173,3.46385 -2.97656,4.07766 -0.60223,0.22751 -0.7276,0.43396 -0.7276,1.19815 0,1.24795 -1.26326,1.95407 -2.06375,1.15357 z m -13.378792,-5.10913 c -0.0843,-0.21975 -0.29129,-1.19181 -0.45991,-2.16013 -1.45998,-8.38383 5.04886,-16.55879 13.705812,-17.21419 1.65732,-0.12547 4.34997,0.18537 5.53072,0.63847 0.531,0.20376 0.50071,-4.61019 -0.0438,-6.95798 -1.69562,-7.31137 -6.9842,-12.93979 -14.402802,-15.32831 -2.70017,-0.86936 -7.92097,-1.19014 -10.66325,-0.65517 -7.25722,1.41573 -13.32014,6.89041 -15.83165,14.2956 -0.75531,2.22703 -0.86551,2.92642 -0.96671,6.13553 -0.10428,3.30639 -0.0543,3.83103 0.57398,6.0212 1.7532,6.11198 5.48007,10.60459 11.14492,13.43482 3.13823,1.5679 5.45305,2.11812 9.09029,2.16071 2.1067,0.0247 2.45285,-0.0306 2.32238,-0.37055 z m -9.89132,-12.09421 c -0.40065,-0.19323 -0.59531,-0.52197 -0.59531,-1.00535 0,-0.56911 0.76911,-1.49417 3.70417,-4.45527 l 3.70416,-3.73701 v -7.53354 c 0,-7.16838 0.0247,-7.54677 0.51,-7.80649 0.53731,-0.28756 1.34156,-0.11053 1.66877,0.36732 0.10691,0.15614 0.1962,3.8606 0.19843,8.23215 l 0.004,7.94826 -4.18585,4.15643 c -2.30223,2.28603 -4.23699,4.14836 -4.29948,4.13851 -0.0625,-0.01 -0.38152,-0.1471 -0.70894,-0.30501 z"
       id="path4734"
       inkscape:connector-curvature="0"
       inkscape:export-xdpi="300.16092"
       inkscape:export-ydpi="300.16092" />
  </g>
</svg>
